<?xml version="1.0" standalone="no"?>
<!DOCTYPE svg PUBLIC "-//W3C//DTD SVG 20010904//EN"
 "http://www.w3.org/TR/2001/REC-SVG-20010904/DTD/svg10.dtd">
<svg version="1.0" xmlns="http://www.w3.org/2000/svg"
 width="700.000000pt" height="700.000000pt" viewBox="0 0 700.000000 700.000000"
 preserveAspectRatio="xMidYMid meet">
<metadata>
Created by potrace 1.11, written by Peter Selinger 2001-2013
</metadata>
<g transform="translate(0.000000,700.000000) scale(0.100000,-0.100000)"
fill="#000000" stroke="none">
<path d="M1033 5846 c-23 -8 -57 -23 -77 -35 -56 -35 -133 -126 -158 -189
l-23 -57 -3 -2000 c-2 -1412 0 -2019 8 -2064 20 -116 85 -205 187 -257 l58
-29 306 -3 c289 -3 309 -2 362 18 61 23 137 84 172 140 58 92 55 -5 55 1792
l0 1648 215 0 215 0 2 -1667 3 -1668 27 -57 c35 -75 94 -138 165 -174 l58 -29
306 -3 c291 -3 309 -2 363 18 78 30 155 103 192 182 l29 63 3 1668 2 1667 215
0 215 0 2 -1667 3 -1668 29 -63 c37 -79 114 -152 191 -181 55 -21 70 -21 923
-21 l867 0 57 24 c74 30 129 75 166 134 53 84 57 109 57 337 0 228 -4 253 -57
337 -37 59 -92 104 -166 134 -57 23 -59 24 -489 24 l-433 0 0 1660 c0 1190 -3
1674 -11 1712 -24 114 -98 210 -199 257 l-55 26 -1870 2 c-1518 1 -1878 -1
-1912 -11z"/>
</g>
</svg>
